<svg id="svg" version="1.1" xmlns="http://www.w3.org/2000/svg" xmlns:xlink="http://www.w3.org/1999/xlink" width="400" height="1121.83908045977" viewBox="0, 0, 400,1121.83908045977"><g id="svgg"><path id="path0" d="M160.345 40.992 C 156.037 41.449,148.413 44.273,147.126 45.889 C 146.810 46.286,144.353 48.322,141.667 50.414 C 138.980 52.505,136.782 55.017,136.782 55.995 C 136.782 58.021,132.353 65.704,130.523 66.853 C 123.966 70.971,122.038 78.656,123.888 93.313 C 124.761 100.229,124.650 101.048,122.774 101.539 C 120.432 102.151,119.620 115.295,121.839 116.667 C 122.471 117.057,122.989 119.423,122.989 121.924 C 122.989 124.853,124.216 128.647,126.437 132.582 C 128.333 135.942,129.885 140.042,129.885 141.692 C 129.885 143.342,130.370 144.991,130.962 145.357 C 132.389 146.239,135.632 152.806,135.632 154.813 C 135.632 155.685,137.184 157.916,139.080 159.770 C 143.446 164.038,143.671 169.896,139.771 177.767 C 138.254 180.829,136.744 184.172,136.416 185.197 C 136.087 186.222,134.359 187.427,132.576 187.874 C 130.792 188.322,129.070 189.035,128.747 189.459 C 127.639 190.917,120.908 194.253,119.076 194.253 C 118.067 194.253,117.241 194.711,117.241 195.272 C 117.241 195.832,114.914 196.640,112.069 197.066 C 109.224 197.493,106.897 198.270,106.897 198.793 C 106.897 199.316,105.086 200.084,102.874 200.499 C 100.661 200.914,98.851 201.724,98.851 202.299 C 98.851 202.874,97.040 203.684,94.828 204.099 C 92.615 204.514,90.805 205.313,90.805 205.875 C 90.805 206.437,89.801 206.897,88.574 206.897 C 87.347 206.897,86.047 207.374,85.687 207.958 C 85.326 208.541,83.485 209.358,81.596 209.773 C 79.707 210.188,78.161 211.004,78.161 211.586 C 78.161 212.168,77.406 212.644,76.483 212.644 C 71.042 212.644,68.966 218.275,68.966 233.034 C 68.966 240.785,68.494 247.126,67.917 247.126 C 67.341 247.126,66.519 249.195,66.092 251.724 C 65.665 254.253,64.843 256.322,64.267 256.322 C 63.690 256.322,63.218 257.149,63.218 258.160 C 63.218 259.170,62.491 261.627,61.601 263.619 C 60.596 265.870,59.742 273.295,59.345 283.234 C 58.993 292.030,58.169 299.762,57.513 300.418 C 56.858 301.073,56.322 302.799,56.322 304.253 C 56.322 305.707,55.853 306.897,55.280 306.897 C 54.707 306.897,53.883 309.483,53.448 312.644 C 53.014 315.805,52.189 318.391,51.616 318.391 C 50.194 318.391,50.290 326.125,51.724 327.011 C 53.249 327.954,53.249 350.575,51.724 350.575 C 51.092 350.575,50.575 351.530,50.575 352.698 C 50.575 353.865,49.540 356.013,48.276 357.471 C 46.981 358.965,45.977 361.772,45.977 363.901 C 45.977 365.980,45.460 368.000,44.828 368.391 C 42.438 369.868,45.481 382.347,48.565 383.717 C 49.040 383.928,49.753 386.126,50.149 388.602 C 50.545 391.078,51.320 393.103,51.871 393.103 C 52.422 393.103,52.874 396.462,52.874 400.567 C 52.874 407.515,55.660 417.241,57.651 417.241 C 58.084 417.241,58.779 418.793,59.195 420.690 C 59.612 422.586,60.419 424.138,60.989 424.138 C 61.559 424.138,62.350 425.431,62.746 427.011 C 63.143 428.592,63.929 429.885,64.492 429.885 C 65.056 429.885,65.517 430.577,65.517 431.422 C 65.517 432.267,67.499 435.759,69.921 439.181 C 72.343 442.603,75.950 448.764,77.936 452.874 C 79.922 456.983,82.932 461.829,84.625 463.642 C 89.173 468.515,90.232 489.485,86.138 493.621 C 85.544 494.221,85.057 496.906,85.057 499.587 C 85.057 502.268,84.619 504.733,84.084 505.064 C 83.548 505.395,82.749 513.745,82.309 523.619 C 81.836 534.226,80.941 542.488,80.122 543.810 C 79.112 545.439,79.084 546.272,80.017 546.874 C 80.722 547.329,81.664 550.675,82.111 554.310 C 82.558 557.945,83.404 560.920,83.991 560.920 C 84.577 560.920,85.057 561.461,85.057 562.124 C 85.057 562.786,86.438 564.608,88.126 566.172 C 90.582 568.449,91.298 570.329,91.715 575.600 C 92.001 579.221,92.707 582.776,93.284 583.499 C 93.861 584.222,94.645 587.455,95.027 590.683 C 95.410 593.911,96.168 596.552,96.712 596.552 C 97.256 596.552,97.701 597.814,97.701 599.357 C 97.701 600.901,98.173 602.455,98.751 602.812 C 99.328 603.168,100.149 605.524,100.575 608.046 C 101.001 610.568,101.785 612.901,102.318 613.230 C 102.851 613.560,103.643 616.673,104.077 620.148 C 104.511 623.624,105.293 626.731,105.814 627.053 C 106.336 627.375,107.118 631.248,107.553 635.659 C 107.987 640.069,108.727 643.678,109.195 643.678 C 109.664 643.678,110.409 647.816,110.850 652.874 C 111.291 657.931,112.134 662.069,112.723 662.069 C 113.311 662.069,113.793 663.517,113.793 665.287 C 113.793 667.057,114.354 669.067,115.039 669.752 C 115.725 670.438,116.574 674.176,116.926 678.061 C 117.278 681.945,118.011 685.397,118.553 685.733 C 119.096 686.068,119.558 687.217,119.579 688.286 C 119.601 689.355,120.618 692.299,121.839 694.828 C 123.061 697.356,124.077 701.106,124.099 703.161 C 124.120 705.216,124.655 706.897,125.287 706.897 C 126.701 706.897,126.876 736.417,125.465 736.973 C 123.623 737.700,122.802 743.678,124.544 743.678 C 126.445 743.678,128.362 782.472,127.000 793.375 C 126.408 798.113,126.645 800.671,127.900 803.067 C 132.902 812.616,132.759 810.766,132.759 865.979 C 132.759 906.730,133.087 919.231,134.183 920.115 C 136.396 921.902,137.625 944.828,135.507 944.828 C 133.671 944.828,131.660 947.645,128.072 955.240 C 126.603 958.351,122.701 963.023,118.473 966.735 C 103.361 980.003,96.175 987.702,94.780 992.119 C 94.309 993.609,92.676 995.903,91.152 997.217 C 87.888 1000.031,85.057 1005.121,85.057 1008.177 C 85.057 1009.369,84.627 1010.345,84.102 1010.345 C 83.576 1010.345,82.593 1012.761,81.917 1015.714 C 80.495 1021.928,81.553 1023.724,87.314 1024.876 C 89.260 1025.266,91.131 1026.035,91.471 1026.585 C 91.811 1027.136,93.249 1027.586,94.666 1027.586 C 96.082 1027.586,97.808 1028.153,98.500 1028.845 C 100.078 1030.423,120.711 1030.324,122.304 1028.730 C 122.933 1028.101,124.607 1027.586,126.024 1027.586 C 127.441 1027.586,128.901 1027.099,129.269 1026.503 C 129.637 1025.908,132.254 1025.073,135.084 1024.649 C 137.914 1024.224,140.230 1023.418,140.230 1022.858 C 140.230 1022.298,141.498 1021.839,143.048 1021.839 C 146.807 1021.839,153.468 1014.909,157.410 1006.897 C 159.120 1003.420,161.127 1000.704,161.869 1000.862 C 162.611 1001.020,163.218 1000.632,163.218 1000.000 C 163.218 999.368,163.935 998.851,164.811 998.851 C 165.687 998.851,167.885 998.078,169.696 997.134 C 171.507 996.189,174.152 995.413,175.575 995.409 C 176.997 995.405,178.161 994.931,178.161 994.354 C 178.161 993.777,180.230 992.956,182.759 992.529 C 185.287 992.102,187.356 991.336,187.356 990.828 C 187.356 990.320,188.779 989.549,190.517 989.116 C 197.223 987.442,197.701 986.125,197.701 969.346 C 197.701 960.901,198.155 953.094,198.709 951.996 C 202.196 945.095,203.324 930.276,201.352 917.306 C 200.473 911.529,203.558 862.704,204.885 861.390 C 206.233 860.055,205.952 800.000,204.598 800.000 C 203.966 800.000,203.448 799.029,203.448 797.842 C 203.448 796.655,202.628 795.003,201.626 794.172 C 200.301 793.072,200.026 791.701,200.617 789.146 C 201.522 785.233,201.524 781.186,200.639 750.677 C 200.217 736.140,200.421 729.039,201.288 727.994 C 202.056 727.068,202.708 718.920,202.952 707.202 C 203.643 674.000,204.553 664.368,206.998 664.368 C 208.480 664.368,209.312 665.542,209.846 668.391 C 210.261 670.603,211.000 672.414,211.488 672.414 C 212.399 672.414,213.962 676.239,214.307 679.310 C 214.633 682.216,216.179 687.834,217.165 689.693 C 217.678 690.662,218.483 693.248,218.952 695.440 C 219.422 697.632,220.332 700.078,220.975 700.876 C 221.618 701.674,222.407 708.283,222.728 715.563 C 223.049 722.843,223.756 729.075,224.300 729.410 C 224.843 729.746,225.287 731.852,225.287 734.090 C 225.287 736.327,226.063 739.918,227.011 742.068 C 227.960 744.218,229.511 747.736,230.460 749.886 C 231.408 752.036,232.184 754.623,232.184 755.633 C 232.184 756.644,232.701 757.471,233.333 757.471 C 233.966 757.471,234.500 758.118,234.522 758.908 C 234.543 759.698,235.560 762.414,236.782 764.943 C 238.003 767.471,239.020 770.187,239.041 770.977 C 239.063 771.767,239.598 772.414,240.230 772.414 C 240.862 772.414,241.379 773.190,241.379 774.138 C 241.379 775.086,240.862 775.862,240.230 775.862 C 237.778 775.862,238.868 790.582,241.378 791.379 C 243.310 791.992,243.472 792.490,242.395 794.503 C 241.554 796.074,241.316 801.678,241.702 810.805 C 242.026 818.454,242.904 840.230,243.653 859.195 C 244.619 883.653,245.480 894.713,246.616 897.238 C 247.893 900.078,248.071 905.320,247.496 923.185 C 246.691 948.226,246.986 950.645,251.118 952.857 C 254.203 954.508,255.844 978.161,252.874 978.161 C 252.241 978.161,251.724 979.682,251.724 981.541 C 251.724 983.401,252.241 985.241,252.874 985.632 C 256.636 987.957,253.787 1020.000,249.451 1024.138 C 249.119 1024.454,247.653 1027.299,246.191 1030.460 C 244.730 1033.621,243.049 1037.105,242.457 1038.203 C 241.864 1039.301,241.379 1040.982,241.379 1041.938 C 241.379 1042.895,240.920 1043.678,240.358 1043.678 C 239.796 1043.678,238.997 1045.489,238.582 1047.701 C 238.166 1049.914,237.393 1051.724,236.864 1051.724 C 236.334 1051.724,235.586 1052.629,235.203 1053.736 C 234.023 1057.135,228.749 1065.948,227.391 1066.787 C 222.766 1069.646,224.982 1083.343,230.655 1086.956 C 232.444 1088.095,234.168 1089.380,234.485 1089.810 C 234.803 1090.241,237.001 1090.957,239.370 1091.402 C 241.740 1091.846,243.678 1092.670,243.678 1093.231 C 243.678 1093.793,249.626 1094.253,256.897 1094.253 C 264.167 1094.253,270.115 1093.804,270.115 1093.255 C 270.115 1092.706,272.302 1091.963,274.975 1091.605 C 277.648 1091.246,280.019 1090.402,280.243 1089.729 C 280.468 1089.056,281.148 1088.506,281.754 1088.506 C 282.361 1088.506,285.551 1086.506,288.842 1084.061 C 292.134 1081.617,297.284 1078.206,300.287 1076.481 C 303.290 1074.756,305.747 1072.618,305.747 1071.730 C 305.747 1070.842,306.247 1070.115,306.857 1070.115 C 307.467 1070.115,308.310 1067.529,308.729 1064.368 C 309.148 1061.207,309.867 1058.621,310.327 1058.621 C 310.786 1058.621,311.469 1055.336,311.843 1051.322 C 312.266 1046.797,313.640 1041.927,315.458 1038.507 C 317.071 1035.473,318.391 1032.335,318.391 1031.534 C 318.391 1030.732,318.901 1029.904,319.525 1029.693 C 321.089 1029.165,321.405 979.321,319.851 978.329 C 316.703 976.319,315.635 952.722,318.461 947.623 C 319.536 945.684,320.775 942.457,321.215 940.453 C 321.656 938.448,322.493 936.513,323.077 936.152 C 324.517 935.262,324.425 931.322,322.953 930.831 C 322.175 930.572,321.588 913.284,321.242 880.452 C 320.903 848.252,320.302 830.330,319.553 830.081 C 318.834 829.841,318.375 822.390,318.350 810.536 C 318.319 796.097,317.905 790.672,316.667 788.506 C 315.763 786.925,315.006 783.095,314.983 779.994 C 314.953 775.792,314.210 773.395,312.069 770.587 C 308.967 766.521,308.327 762.575,310.632 761.740 C 311.771 761.328,311.756 760.692,310.563 758.676 C 309.735 757.277,308.830 751.649,308.551 746.169 C 308.273 740.690,307.528 736.034,306.896 735.824 C 306.264 735.613,305.747 733.655,305.747 731.473 C 305.747 729.291,304.922 726.247,303.915 724.708 C 302.512 722.569,302.253 720.350,302.812 715.266 C 304.464 700.220,304.762 689.655,303.533 689.655 C 302.820 689.655,302.299 687.255,302.299 683.976 C 302.299 680.852,301.782 677.977,301.149 677.586 C 300.458 677.159,300.000 669.332,300.000 657.963 C 300.000 647.560,300.517 638.022,301.149 636.766 C 303.953 631.197,304.353 630.163,305.159 626.399 C 305.628 624.207,306.400 621.897,306.874 621.264 C 307.348 620.632,308.040 614.471,308.412 607.572 C 308.837 599.685,309.602 594.712,310.475 594.173 C 311.356 593.628,312.059 588.884,312.402 581.170 C 312.897 570.042,313.146 568.962,315.379 568.266 C 316.719 567.848,318.163 566.966,318.587 566.305 C 319.010 565.644,323.141 564.808,327.766 564.448 L 336.175 563.793 337.002 559.195 C 337.966 553.830,336.831 528.736,335.624 528.736 C 335.173 528.736,334.536 522.679,334.209 515.277 C 333.837 506.838,333.134 501.658,332.325 501.388 C 331.615 501.151,331.034 498.963,331.034 496.524 C 331.034 494.085,330.562 491.798,329.985 491.441 C 329.408 491.084,328.574 488.597,328.131 485.914 C 327.688 483.230,326.927 480.517,326.440 479.885 C 325.952 479.253,325.169 476.925,324.701 474.713 C 324.232 472.500,323.341 470.366,322.719 469.970 C 322.097 469.574,321.319 466.858,320.990 463.935 C 320.660 461.012,319.941 458.621,319.391 458.621 C 318.841 458.621,318.391 457.617,318.391 456.390 C 318.391 455.163,317.896 453.853,317.292 453.479 C 316.687 453.106,316.464 452.093,316.795 451.229 C 317.127 450.365,316.846 449.316,316.170 448.899 C 315.495 448.482,314.943 445.615,314.943 442.529 C 314.943 439.442,314.425 436.598,313.793 436.207 C 313.161 435.816,312.644 430.902,312.644 425.287 C 312.644 419.672,313.161 414.759,313.793 414.368 C 314.425 413.977,314.948 412.783,314.955 411.714 C 314.962 410.645,316.959 407.688,319.393 405.144 C 321.827 402.599,324.219 399.237,324.708 397.672 C 325.197 396.108,326.174 394.457,326.879 394.005 C 328.507 392.960,328.117 357.163,326.445 354.038 C 324.960 351.263,324.929 322.358,326.407 319.596 C 328.103 316.428,328.487 259.394,326.827 257.372 C 326.093 256.478,325.131 253.807,324.688 251.437 C 324.245 249.066,323.454 247.126,322.930 247.126 C 322.407 247.126,321.622 243.506,321.185 239.080 C 320.749 234.655,320.014 231.034,319.551 231.034 C 319.088 231.034,318.442 226.338,318.115 220.599 C 317.787 214.859,316.940 209.583,316.231 208.875 C 315.522 208.166,314.943 206.570,314.943 205.329 C 314.943 200.631,311.156 194.432,306.999 192.323 C 304.730 191.172,302.614 189.889,302.296 189.473 C 301.979 189.057,299.651 188.336,297.124 187.871 C 294.597 187.405,292.256 186.608,291.922 186.099 C 291.589 185.590,287.709 184.850,283.301 184.453 C 278.894 184.057,274.253 183.310,272.989 182.793 C 266.995 180.341,260.078 178.161,258.295 178.161 C 257.210 178.161,256.322 177.701,256.322 177.139 C 256.322 176.578,254.511 175.778,252.299 175.363 C 250.086 174.948,248.276 174.115,248.276 173.511 C 248.276 172.908,247.629 172.411,246.839 172.407 C 246.049 172.403,243.911 171.622,242.089 170.672 C 240.267 169.722,236.646 168.609,234.043 168.199 C 229.447 167.475,227.728 166.204,224.138 160.873 C 223.190 159.464,221.439 157.373,220.248 156.226 C 217.392 153.475,217.212 149.562,219.767 145.800 C 221.340 143.484,221.839 140.516,221.839 133.484 C 221.839 125.395,222.131 124.063,224.138 122.989 C 225.627 122.192,226.437 120.582,226.437 118.418 C 226.437 116.581,226.954 114.759,227.586 114.368 C 229.083 113.443,229.083 101.500,227.586 100.575 C 226.954 100.184,226.437 98.665,226.437 97.199 C 226.437 95.734,225.727 93.945,224.859 93.225 C 223.869 92.403,222.982 88.074,222.474 81.590 C 222.030 75.911,221.188 71.264,220.603 71.264 C 220.019 71.264,219.540 70.086,219.540 68.647 C 219.540 62.684,207.867 50.012,196.726 43.882 C 191.293 40.893,174.131 39.529,160.345 40.992 " stroke="none" fill="#000000" fill-rule="evenodd"></path></g></svg>